<svg width="1600" height="480" viewBox="0 0 1600 480" fill="none" xmlns="http://www.w3.org/2000/svg">
  <rect width="1600" height="480" fill="#020202"/>
  <path d="M0 80H1600" stroke="#111111"/>
  <path d="M0 160H1600" stroke="#111111"/>
  <path d="M0 240H1600" stroke="#111111"/>
  <path d="M0 320H1600" stroke="#111111"/>
  <path d="M0 400H1600" stroke="#111111"/>
  <path d="M110 80L330 80" stroke="#9EFF00" stroke-width="4"/>
  <path d="M110 400L520 400" stroke="#9EFF00" stroke-width="4"/>
  <text x="104" y="150" fill="#FFFFFF" font-family="Courier New, monospace" font-size="88" font-weight="700">0xchou00 platform</text>
  <text x="110" y="212" fill="#9EFF00" font-family="Courier New, monospace" font-size="30" font-weight="700">Detection engineering | SIEM architecture | tamper-evident telemetry</text>
  <text x="110" y="286" fill="#FFFFFF" font-family="Courier New, monospace" font-size="26">[0xchou00] Linux-ready security telemetry pipeline for SOC workflows</text>
  <g transform="translate(1170 78)">
    <rect width="240" height="240" rx="28" fill="#050505"/>
    <rect x="28" y="30" width="154" height="122" rx="16" fill="#070707" stroke="#9EFF00" stroke-width="6"/>
    <rect x="42" y="46" width="126" height="88" rx="10" fill="#0A0F0A"/>
    <path d="M69 91C75 77 91 69 106 69H136" stroke="#9EFF00" stroke-width="6" stroke-linecap="round"/>
    <path d="M72 108C90 117 112 116 126 96" stroke="#FFFFFF" stroke-width="5" stroke-linecap="round"/>
    <text x="92" y="101" fill="#9EFF00" font-family="Courier New, monospace" font-size="26" font-weight="700">0x</text>
    <path d="M135 103L151 88" stroke="#FFFFFF" stroke-width="6" stroke-linecap="round"/>
    <path d="M134 88L150 103" stroke="#FFFFFF" stroke-width="6" stroke-linecap="round"/>
    <text x="58" y="129" fill="#9EFF00" font-family="Courier New, monospace" font-size="20" font-weight="700">&gt;_</text>
    <rect x="83" y="158" width="42" height="13" rx="6.5" fill="#9EFF00"/>
    <path d="M106 171V194" stroke="#9EFF00" stroke-width="6" stroke-linecap="round"/>
    <path d="M70 194H142" stroke="#9EFF00" stroke-width="6" stroke-linecap="round"/>
    <path d="M184 143C201 150 211 163 211 178V181C211 196 201 209 184 216" stroke="#9EFF00" stroke-width="6" stroke-linecap="round"/>
    <rect x="177" y="133" width="20" height="26" rx="5" fill="#050505" stroke="#9EFF00" stroke-width="4"/>
    <path d="M181 140H193" stroke="#9EFF00" stroke-width="3" stroke-linecap="round"/>
    <path d="M181 147H193" stroke="#9EFF00" stroke-width="3" stroke-linecap="round"/>
    <path d="M181 154H193" stroke="#9EFF00" stroke-width="3" stroke-linecap="round"/>
  </g>
</svg>
